HIERARCHY
ROOT Hips
{
  OFFSET 90.7885 88.945 -76.2838
  CHANNELS 6 Xposition Yposition Zposition Zrotation Xrotation Yrotation
  JOINT LeftUpLeg
  {
    OFFSET 8.64259 1.95398 -2.38835
    CHANNELS 3 Zrotation Xrotation Yrotation
    JOINT LeftLeg
    {
      OFFSET 43.7702 0 0
      CHANNELS 3 Zrotation Xrotation Yrotation
      JOINT LeftFoot
      {
        OFFSET 40.6238 0 0
        CHANNELS 3 Zrotation Xrotation Yrotation
        JOINT LeftToeBase
        {
          OFFSET 12.7242 0 0
          CHANNELS 3 Zrotation Xrotation Yrotation
          End Site
          {
            OFFSET 0 0 0
          }
        }
      }
    }
  }
  JOINT RightUpLeg
  {
    OFFSET -8.2249 1.95398 -2.59336
    CHANNELS 3 Zrotation Xrotation Yrotation
    JOINT RightLeg
    {
      OFFSET 43.5653 0 0
      CHANNELS 3 Zrotation Xrotation Yrotation
      JOINT RightFoot
      {
        OFFSET 40.6238 0 0
        CHANNELS 3 Zrotation Xrotation Yrotation
        JOINT RightToeBase
        {
          OFFSET 12.7242 0 0
          CHANNELS 3 Zrotation Xrotation Yrotation
          End Site
          {
            OFFSET 0 0 0
          }
        }
      }
    }
  }
  JOINT Spine
  {
    OFFSET 0.165834 0.87714 6.61349
    CHANNELS 3 Zrotation Xrotation Yrotation
    JOINT Spine1
    {
      OFFSET 7.38963 1.71661e-005 0
      CHANNELS 3 Zrotation Xrotation Yrotation
      JOINT Spine2
      {
        OFFSET 11.9445 1.14441e-005 0
        CHANNELS 3 Zrotation Xrotation Yrotation
        JOINT Spine3
        {
          OFFSET 14.7254 4.19617e-005 0
          CHANNELS 3 Zrotation Xrotation Yrotation
          JOINT Spine4
          {
            OFFSET 10.9679 0 0
            CHANNELS 3 Zrotation Xrotation Yrotation
            JOINT RightShoulder
            {
              OFFSET 2.46616 -1.6653 3.69651
              CHANNELS 3 Zrotation Xrotation Yrotation
              JOINT RightArm
              {
                OFFSET 13.0012 0 0
                CHANNELS 3 Zrotation Xrotation Yrotation
                JOINT RightForeArm
                {
                  OFFSET 28.7848 1.52588e-005 0
                  CHANNELS 3 Zrotation Xrotation Yrotation
                  JOINT RightHand
                  {
                    OFFSET 26.5688 1.52588e-005 0
                    CHANNELS 3 Zrotation Xrotation Yrotation
                    End Site
                    {
                      OFFSET 0 0 0
                    }
                  }
                }
              }
            }
            JOINT LeftShoulder
            {
              OFFSET 2.38034 -1.29275 -3.7523
              CHANNELS 3 Zrotation Xrotation Yrotation
              JOINT LeftArm
              {
                OFFSET 16.3182 6.10352e-005 0
                CHANNELS 3 Zrotation Xrotation Yrotation
                JOINT LeftForeArm
                {
                  OFFSET 27.0901 0 0
                  CHANNELS 3 Zrotation Xrotation Yrotation
                  JOINT LeftHand
                  {
                    OFFSET 24.5451 1.52588e-005 0
                    CHANNELS 3 Zrotation Xrotation Yrotation
                    End Site
                    {
                      OFFSET 0 0 0
                    }
                  }
                }
              }
            }
            JOINT Neck
            {
              OFFSET 5.0226 -0.0266342 0
              CHANNELS 3 Zrotation Xrotation Yrotation
              JOINT Head
              {
                OFFSET 6.69363 2.86102e-005 0
                CHANNELS 3 Zrotation Xrotation Yrotation
                End Site
                {
                  OFFSET 0 0 0
                }
              }
            }
          }
        }
      }
    }
  }
}
MOTION
Frames:	12
Frame Time:	0.0416667
-93.3132 92.8208 -81.0008 -114.638 52.7448 -77.3367 -170.988 14.5644 85.1353 -42.1856 7.54301 -8.4633 70.1292 5.02086 6.52398 15.1068 3.60049 -2.02159 175.787 -8.25934 73.7763 -69.457 -31.4432 -12.5388 55.8212 1.35791 -1.38542 18.632 -1.65442 5.07015 1.40722 8.54125 -89.3846 9.77899 3.0838 0.975395 -1.88855 3.12376 0.8386 -24.4438 2.64805 1.85758 -4.43116 2.64806 1.85759 89.7395 -26.8697 -108.556 27.166 -0.928509 -52.0016 -27.0642 -19.7413 -65.4081 -45.23 0.00360614 -10.1719 -88.5563 -52.7836 81.4038 -23.259 16.7588 18.8756 0.996873 -5.5241 -0.51751 2.42616 0.101532 0.212703 20.6706 1.30243 -0.308537 -7.86479 1.30154 1.06009 
-96.3475 94.1725 -83.3579 -112.196 52.1711 -78.8847 -172.21 11.7567 84.8028 -39.2717 6.97785 -8.23289 71.2119 5.46962 6.42687 15.9155 3.66012 -2.25512 -179.855 -1.29759 77.2938 -73.2688 -24.8284 -10.4757 59.9715 -0.693299 -2.0259 18.9805 -0.876601 3.61189 1.17635 8.39127 -89.4469 10.0814 2.59613 0.8816 -1.58722 2.63242 0.766414 -24.136 2.21114 1.62135 -4.12339 2.21113 1.62135 89.0419 -28.9839 -109.076 25.9407 -6.96999 -43.3557 -29.0873 -17.5459 -67.8339 -47.5721 -0.17732 -9.60082 -88.1949 -54.9699 82.3063 -19.5483 18.4356 9.74758 1.2163 -4.80306 -4.98298 2.05279 0.0638979 -0.315852 19.1527 1.99775 0.620834 -7.21424 1.73704 0.128662 
-99.1735 95.9733 -85.8969 -110.541 49.0147 -78.6096 -173.885 7.55174 85.7734 -34.9928 8.85575 -6.64095 71.0528 5.32917 6.15731 16.0142 2.72441 -1.19001 -179.252 3.70044 81.2464 -71.7438 -21.5136 -8.43319 63.3127 -2.3651 -3.10765 16.6427 -1.16982 4.42937 0.811859 8.33721 -89.7429 10.1973 1.73495 0.363115 -1.4725 1.74928 0.286373 -24.015 1.5456 0.867866 -4.00235 1.54562 0.867859 88.8682 -30.1889 -108.916 27.153 -11.531 -33.0464 -36.9598 -21.427 -68.5196 -39.4578 -0.742852 -10.5279 -88.33 -57.6295 82.5555 -14.8011 19.3639 -0.618043 0.958699 -7.17809 -10.1299 1.18246 -0.0993624 -4.65464 17.4164 2.29875 1.9116 -6.68956 1.7084 -0.845573 
-101.866 97.387 -88.2235 -108.148 45.0643 -79.0193 -175.236 4.07008 86.49 -30.973 11.7877 -4.62583 70.8576 5.28923 6.41959 16.0357 2.39764 -0.813571 179.23 8.57482 84.3301 -66.674 -17.6429 -6.45466 64.8143 -3.10273 -3.47178 16.6803 -0.948878 4.02752 0.437312 8.24828 -89.9193 10.3773 0.908228 0.0805973 -1.29337 0.910899 0.0405349 -23.8308 0.842004 0.349852 -3.81811 0.842014 0.349847 88.3691 -31.8713 -109.194 27.9521 -15.4083 -22.8679 -29.3375 -20.4384 -63.0629 -34.431 -0.0663978 -12.0744 -88.7256 -56.7542 81.8619 -13.5999 18.6419 -10.922 1.58362 -7.35235 -15.5253 0.78106 -0.167653 -7.34292 15.7668 1.45412 0.17495 -6.12213 1.3745 -0.27982 
-104.726 98.3341 -90.5238 -105.991 40.6654 -79.4879 -176.305 0.985881 87.2484 -28.136 14.9249 -2.48508 71.2776 5.47147 6.98236 16.584 2.60063 -1.15727 176.392 11.8311 86.1404 -57.4936 -13.8316 -4.27013 64.8814 -3.21138 -3.74482 17.3079 -0.853338 3.77702 0.0765169 8.23823 -90.1059 10.3978 0.103975 -0.219165 -1.27318 0.0942355 -0.223537 -23.8083 0.165046 -0.177781 -3.79561 0.165038 -0.177791 87.9483 -32.5335 -109.726 29.6333 -20.432 -13.2064 -15.1535 -4.96531 -49.4621 -25.691 -0.0461797 -7.56216 -89.1442 -56.2378 81.1878 -8.96923 21.0079 -24.6513 0.322708 -8.36149 -18.0723 2.15243 -0.19547 -7.45237 15.6051 0.496807 -1.55098 -5.7863 0.883324 0.790201 
-107.167 98.8716 -92.8512 -103.939 37.1968 -80.3625 -176.415 -1.41495 88.0242 -25.6965 17.6745 -1.33655 71.5225 5.54754 6.97698 17.213 3.27324 -2.07095 174.791 14.31 87.6078 -45.9664 -10.6272 -2.71794 63.9928 -2.89859 -3.09584 16.9026 -0.814148 3.75461 -0.0964402 8.20596 -90.2154 10.4612 -0.290809 -0.402291 -1.20974 -0.30824 -0.389109 -23.7445 -0.156463 -0.471094 -3.73188 -0.15647 -0.4711 88.2578 -32.3591 -109.21 32.4322 -17.0212 -5.94229 -15.3243 -21.2992 -40.876 -28.427 -0.389539 -9.67736 -90.341 -54.7124 79.2118 -4.83395 20.7991 -39.0168 1.88916 -2.1777 -18.4798 2.43659 -0.235242 -7.88279 15.5889 -0.862189 -3.18836 -5.28803 -0.000178904 1.21918 
-109.731 98.9983 -95.059 -102.455 33.7516 -81.4232 -176.769 -3.79622 88.4648 -24.0569 19.9213 -0.0727001 72.5334 6.06158 6.32782 17.4553 3.29839 -2.1513 173.864 14.9892 87.8199 -31.9945 -9.87771 -1.82607 61.554 -2.02813 -2.44767 17.3211 -0.848632 3.7657 -0.329448 8.20775 -90.194 10.4573 -0.745163 -0.31962 -1.21342 -0.758516 -0.28652 -23.7495 -0.614675 -0.528805 -3.73687 -0.614658 -0.528801 88.2928 -33.1912 -108.813 34.1152 -13.3289 -1.23461 -6.58572 -31.1473 -28.3808 -26.4984 -0.603423 -10.502 -90.9043 -51.297 77.6722 -4.2158 19.0039 -50.6562 4.46819 4.16784 -19.6991 2.56814 -0.232446 -7.65859 16.2613 -2.18892 -5.45078 -5.33617 -0.656059 1.99494 
-112.546 98.8963 -97.5764 -102.058 31.7012 -82.5361 -176.606 -7.10381 88.6786 -22.223 21.8579 0.20529 73.4429 6.67371 6.11143 17.8479 3.64048 -2.64342 173.22 13.8706 87.3936 -17.1234 -10.8697 -1.38644 57.2024 -0.293182 -1.92401 18.0029 -0.622517 3.26062 -0.481642 8.28541 -90.1018 10.303 -1.00613 -0.115078 -1.3676 -1.01024 -0.0706803 -23.9055 -0.925019 -0.412158 -3.89281 -0.925029 -0.412165 88.3642 -33.6307 -108.508 35.4798 -11.6728 1.39324 5.9768 -24.8257 -11.0772 -25.9831 -0.96168 -6.35421 -91.3566 -48.5067 76.3438 -3.61539 17.0813 -59.3648 6.40289 6.62084 -22.484 4.41348 -0.315146 -8.16918 16.972 -2.7533 -5.88112 -5.19639 -1.03241 1.65397 
-115.488 98.2476 -100.305 -102.084 30.9223 -83.4983 -175.941 -10.2007 89.1754 -21.4613 22.7103 -0.204877 75.8327 7.77373 4.86202 18.5076 4.24825 -3.52037 172.474 13.7655 87.4555 -7.80875 -10.8098 -1.11177 56.5589 0.258415 -0.946791 18.9165 -0.61928 3.11776 -0.597801 8.35373 -89.9584 10.1678 -1.17213 0.181583 -1.50269 -1.16302 0.232995 -24.0421 -1.17252 -0.179139 -4.0294 -1.17253 -0.179148 87.7982 -33.5958 -109.579 37.1602 -8.68323 4.27164 11.3556 -17.0157 -0.835677 -21.496 -1.14577 -2.92289 -91.1055 -45.5257 75.9895 -3.41079 15.0477 -65.5136 8.94222 8.51305 -26.1629 4.56129 -0.31779 -8.11659 17.1712 -2.83546 -6.2506 -4.88057 -0.991704 1.70419 
-118.841 97.1306 -103.374 -102.234 30.8759 -83.7675 -174.736 -12.9349 90.3951 -22.3908 23.831 -0.822251 78.8505 9.30408 4.88041 19.5416 4.12028 -3.60642 172.115 15.7937 88.1988 -7.95849 -6.27933 -0.0682998 60.7942 -1.16723 0.143069 21.3122 -0.832868 3.24696 -0.641367 8.37765 -89.9236 10.1203 -1.24315 0.256021 -1.55004 -1.23069 0.310483 -24.09 -1.26262 -0.129494 -4.07733 -1.26263 -0.129503 88.1558 -32.2808 -109.435 40.1753 -3.7497 9.4244 9.69856 -13.8559 0.210657 -18.6559 -1.27204 -0.704132 -90.8385 -44.6682 76.1905 -2.37635 13.4935 -69.4558 11.1792 8.8102 -30.8017 3.83469 -0.361594 -9.37729 17.2756 -2.52673 -5.01973 -4.90418 -1.02101 0.8444 
-122.576 95.8358 -106.578 -102.476 30.8171 -84.2108 -173.934 -15.9771 91.172 -23.4832 24.2781 -1.02199 81.6728 10.6425 4.65693 20.5726 4.6359 -4.49722 171.672 14.7727 88.6162 -8.31693 -3.61199 0.715021 61.5973 -2.03171 3.2463 26.0643 1.88614 -3.53258 -0.765207 8.33973 -89.845 10.1977 -1.45392 0.431307 -1.47256 -1.43354 0.494889 -24.0142 -1.51632 -0.0257029 -4.0016 -1.51632 -0.0256979 88.8211 -31.5514 -108.456 41.9047 -0.384765 14.962 7.46545 -10.8576 -1.91371 -18.7704 -0.820819 -3.01403 -90.5873 -45.618 76.8232 -2.24015 12.9999 -69.9445 13.7851 8.16887 -36.9313 2.98711 -0.347375 -9.85334 16.4764 -1.87899 -4.15165 -4.3672 -0.661762 0.446294 
-126.359 95.407 -109.932 -102.438 30.1505 -84.3597 -172.195 -19.3823 93.3027 -22.3524 26.552 -1.31657 79.991 10.0407 4.30974 24.037 3.31072 -3.65321 172.017 13.6796 89.0355 -9.99112 -4.97955 0.434664 58.1889 -0.722756 -0.0385267 22.9228 0.365111 0.489732 -0.958395 8.24846 -89.8309 10.3818 -1.83178 0.496071 -1.28803 -1.80818 0.576225 -23.8335 -1.89616 -0.0775814 -3.82089 -1.89615 -0.0775891 90.5218 -30.0841 -105.693 43.4834 1.06814 18.0287 6.57291 -8.76241 -3.80896 -18.0912 -0.0819912 -7.50246 -90.7462 -47.325 76.9883 -3.41332 13.415 -66.8692 17.9445 8.03735 -44.6103 2.0261 -0.325064 -10.4658 15.3149 -1.18832 -3.23082 -3.98086 -0.28188 0.379086 
